<?xml version="1.0" encoding="utf-8"?>
<!-- Generator: Adobe Illustrator 21.0.2, SVG Export Plug-In . SVG Version: 6.00 Build 0)  -->
<svg version="1.1" id="Слой_1" xmlns="http://www.w3.org/2000/svg" xmlns:xlink="http://www.w3.org/1999/xlink" x="0px" y="0px"
	 viewBox="0 0 150.6 142" style="enable-background:new 0 0 150.6 142;" xml:space="preserve">
<style type="text/css">
	.st0{fill:#DD3333;}
</style>
<path class="st0" d="M140.6,46.6c0.8-2.5,1.2-5.2,1.2-8c0-2.8-0.4-5.5-1.2-8c3.4-1.7,6.7-3.7,9.9-5.9c-1.5-3.7-3.5-7.2-6-10.3
	c-3.5,1.7-6.8,3.7-9.9,5.8c-3.7-3.9-8.5-6.8-13.9-8c0.2-3.8,0.1-7.7-0.2-11.5c-4-0.6-8-0.6-11.9,0c-0.2,3.9-0.2,7.7,0,11.5
	c-5.4,1.2-10.2,4.1-13.9,8c-3.2-2.1-6.6-4-10.1-5.6c-2.5,3.1-4.5,6.6-5.9,10.4c3.2,2.1,6.6,4,10,5.7c-0.8,2.5-1.2,5.2-1.2,8
	c0,2.8,0.4,5.5,1.2,8c-3.4,1.7-6.7,3.7-9.9,5.9c1.5,3.7,3.5,7.2,6,10.3c3.5-1.7,6.8-3.7,9.9-5.8c3.7,3.9,8.5,6.8,13.9,8
	c-0.2,3.8-0.1,7.7,0.2,11.5c4,0.6,8,0.6,11.9,0c0.2-3.9,0.2-7.7,0-11.5c5.4-1.2,10.2-4.1,13.9-8c3.2,2.1,6.6,4,10.1,5.6
	c2.5-3.1,4.5-6.6,5.9-10.4C147.3,50.2,144,48.3,140.6,46.6z M114.6,53.7c-8.3,0-15.1-6.8-15.1-15.1s6.8-15.1,15.1-15.1
	c8.3,0,15.1,6.8,15.1,15.1S123,53.7,114.6,53.7z"/>
<path class="st0" d="M91.1,100.4c0.7-3,1-6,1-9.2c0-3.2-0.4-6.3-1-9.3c3.5-1.6,7-3.3,10.3-5.2c-1.1-4-2.7-7.8-4.7-11.4
	c-3.7,1.1-7.3,2.4-10.9,3.8c-3.3-5.3-7.8-9.7-13.1-13c1.4-3.6,2.6-7.2,3.6-11c-3.6-2-7.4-3.6-11.4-4.7c-1.8,3.4-3.5,6.9-5,10.4
	c-3-0.7-6-1-9.2-1c-3.2,0-6.3,0.4-9.3,1c-1.6-3.5-3.3-7-5.2-10.3c-4,1.1-7.8,2.7-11.4,4.7c1.1,3.7,2.4,7.3,3.8,10.9
	c-5.3,3.3-9.7,7.8-13,13.1c-3.6-1.4-7.2-2.6-11-3.6c-2,3.6-3.6,7.4-4.7,11.4c3.4,1.8,6.9,3.5,10.4,5c-0.7,3-1,6-1,9.2
	c0,3.2,0.4,6.3,1,9.3c-3.5,1.6-7,3.3-10.3,5.2c1.1,4,2.7,7.8,4.7,11.4c3.7-1.1,7.3-2.4,10.9-3.8c3.3,5.3,7.8,9.7,13.1,13
	c-1.4,3.6-2.6,7.2-3.6,11c3.6,2,7.4,3.6,11.4,4.7c1.8-3.4,3.5-6.9,5-10.4c3,0.7,6,1,9.2,1c3.2,0,6.3-0.4,9.3-1
	c1.6,3.5,3.3,7,5.2,10.3c4-1.1,7.8-2.7,11.4-4.7c-1.1-3.7-2.4-7.3-3.8-10.9c5.3-3.3,9.7-7.8,13-13.1c3.6,1.4,7.2,2.6,11,3.6
	c2-3.6,3.6-7.4,4.7-11.4C98.1,103.6,94.6,101.9,91.1,100.4z M50.8,118.9c-15.3,0-27.7-12.4-27.7-27.7c0-15.3,12.4-27.7,27.7-27.7
	C66,63.6,78.4,76,78.4,91.3C78.4,106.5,66,118.9,50.8,118.9z"/>
</svg>
